{"accessors" : [{"bufferView" : 0, "byteOffset" : 0, "componentType" : 5123, "count" : 5760, "type" : "SCALAR", "max" : [5695], "min" : [0]}, {"bufferView" : 1, "byteOffset" : 0, "componentType" : 5126, "count" : 5696, "type" : "VEC3", "max" : [131.1605987548828, 128.49644470214844, 0.9902000427246094], "min" : [124.83940124511719, 127.50354766845703, 0], "name" : "POSITION"}, {"bufferView" : 1, "byteOffset" : 12, "componentType" : 5126, "count" : 5696, "type" : "VEC3", "max" : [1.0000044107437134, 1.0000029802322388, 0.999931812286377], "min" : [-1.0000044107437134, -0.9999748468399048, -0.9999983310699463], "name" : "NORMAL"}], "asset" : {"generator" : "Aspose.3D 25.1.0", "version" : "2.0"}, "buffers" : [{"uri" : "data:application/octet-stream;base64,", "byteLength" : 148232}], "bufferViews" : [{"buffer" : 0, "byteOffset" : 0, "byteLength" : 11520, "target" : 34963}, {"buffer" : 0, "byteOffset" : 11524, "byteLength" : 136704, "byteStride" : 24, "target" : 34962}], "meshes" : [{"primitives" : [{"attributes" : {"POSITION" : 1, "NORMAL" : 2}, "indices" : 0, "mode" : 4}], "name" : ""}], "nodes" : [{"mesh" : 0, "name" : ""}], "scene" : 0, "scenes" : [{"nodes" : [0]}]}